# xmcd
# Track frame offsets:
# 150
# 25897
# 42016
# 77859
# 133638
# 155969
# 183678
# 214882
# 242641
# 276038
# 303409
#
# Disc length: 4443 seconds
# Revision: 2
# Processed by: cddbd v1.5.2PL0 Copyright (c) Steve Scherf et al.
# Submitted via: VisiTrax 2.10.3.257 - For more info visit www.synapsa.com
#
DISCID=9b11590b
DTITLE=Various Artist - Warren Haynes Presents: The Benefit Concert Volum
DTITLE=e 3 - Disc 1
DYEAR=2001
DGENRE=Blues
TTITLE0=Alvin Youngblood Hart - Mama Don't Allow
TTITLE1=Alvin Youngblood Hart and John Popper - Devil Got My Woman
TTITLE2=Edwin McCain, Oteil Burnbridge, Jimmy Herring, John Popper and Danny Bar
TTITLE2=nes - That Sign On The Door
TTITLE3=Edwin McCain, Oteil Burnbridge, Jimmy Herring, John Popper and Danny Bar
TTITLE3=nes - Alone
TTITLE4=Drivin' N Cryin' - Broken Hearts And Auto Parts
TTITLE5=Drivin' N Cryin' w/ Audley Freed - Fly Me Courageous
TTITLE6=Drivin' N Cryin' w/ Audley Freed and Edwin McCain - Straight To Hell
TTITLE7=Blues Traveler - Carolina Blues
TTITLE8=Blues Traveler - Slow Change
TTITLE9=Blues Traveler w/ Warren Haynes - Mountains Win Again
TTITLE10=Blues Traveler - New York Prophesie
EXTD=RECORDED LIVE AT THE "13TH ANNUAL WARREN HAYNES CHRISTMAS JAM" AT TH
EXTD=E ASHEVILLE CIVIC CENTER IN ASHEVILLE, NC ON DECEMBER 21ST, 2001. PROD
EXTD=UCED BY Warren Haynes. EXECUTIVE PRODUCER: Stefani Scamardo. EVIL TEE
EXTD=N 651751-12092-1.
EXTT0=
EXTT1=
EXTT2=
EXTT3=
EXTT4=
EXTT5=
EXTT6=
EXTT7=
EXTT8=
EXTT9=
EXTT10=
PLAYORDER=
